<?xml version="1.0" encoding="UTF-8" standalone="no"?>
<!DOCTYPE svg PUBLIC "-//W3C//DTD SVG 1.1//EN"
 "http://www.w3.org/Graphics/SVG/1.1/DTD/svg11.dtd">
<!-- Generated by graphviz version 2.38.0 (20140413.2041)
 -->
<!-- Title: G Pages: 1 -->
<svg width="411pt" height="366pt"
 viewBox="0.00 0.00 410.79 366.00" xmlns="http://www.w3.org/2000/svg" xmlns:xlink="http://www.w3.org/1999/xlink">
<g id="graph0" class="graph" transform="scale(1 1) rotate(0) translate(4 362)">
<title>G</title>
<polygon fill="white" stroke="none" points="-4,4 -4,-362 406.793,-362 406.793,4 -4,4"/>
<g id="clust1" class="cluster"><title>cluster_Global</title>
<path fill="none" stroke="gray" d="M20,-44C20,-44 382.793,-44 382.793,-44 388.793,-44 394.793,-50 394.793,-56 394.793,-56 394.793,-338 394.793,-338 394.793,-344 388.793,-350 382.793,-350 382.793,-350 20,-350 20,-350 14,-350 8,-344 8,-338 8,-338 8,-56 8,-56 8,-50 14,-44 20,-44"/>
<text text-anchor="middle" x="201.396" y="-337.2" font-family="Times,serif" font-size="11.00" fill="gray">Global</text>
</g>
<g id="clust2" class="cluster"><title>cluster_\Teknoo</title>
<path fill="none" stroke="gray" d="M28,-52C28,-52 374.793,-52 374.793,-52 380.793,-52 386.793,-58 386.793,-64 386.793,-64 386.793,-310 386.793,-310 386.793,-316 380.793,-322 374.793,-322 374.793,-322 28,-322 28,-322 22,-322 16,-316 16,-310 16,-310 16,-64 16,-64 16,-58 22,-52 28,-52"/>
<text text-anchor="middle" x="201.396" y="-309.2" font-family="Times,serif" font-size="11.00" fill="gray">Teknoo</text>
</g>
<g id="clust3" class="cluster"><title>cluster_\Teknoo\Curl</title>
<path fill="none" stroke="gray" d="M36,-60C36,-60 366.793,-60 366.793,-60 372.793,-60 378.793,-66 378.793,-72 378.793,-72 378.793,-282 378.793,-282 378.793,-288 372.793,-294 366.793,-294 366.793,-294 36,-294 36,-294 30,-294 24,-288 24,-282 24,-282 24,-72 24,-72 24,-66 30,-60 36,-60"/>
<text text-anchor="middle" x="201.396" y="-281.2" font-family="Times,serif" font-size="11.00" fill="gray">Curl</text>
</g>
<!-- \\Teknoo\\Curl\\ErrorException -->
<g id="node1" class="node"><title>\\Teknoo\\Curl\\ErrorException</title>
<polygon fill="none" stroke="black" points="363.793,-104 252.793,-104 252.793,-68 363.793,-68 363.793,-104"/>
<text text-anchor="middle" x="308.293" y="-83.2" font-family="Courier,monospace" font-size="11.00">ErrorException</text>
</g>
<!-- \\RuntimeException -->
<g id="node7" class="node"><title>\\RuntimeException</title>
<ellipse fill="none" stroke="black" cx="94.5" cy="-18" rx="79.0865" ry="18"/>
<text text-anchor="middle" x="94.5" y="-14.3" font-family="Times,serif" font-size="14.00" fill="gray">\RuntimeException</text>
</g>
<!-- \\Teknoo\\Curl\\ErrorException&#45;&gt;\\RuntimeException -->
<g id="edge1" class="edge"><title>\\Teknoo\\Curl\\ErrorException&#45;&gt;\\RuntimeException</title>
<path fill="none" stroke="black" d="M252.751,-68.4883C221.563,-58.4749 182.534,-45.9439 151.162,-35.8712"/>
<polygon fill="none" stroke="black" points="151.856,-32.4181 141.264,-32.6935 149.716,-39.083 151.856,-32.4181"/>
</g>
<!-- \\Teknoo\\Curl\\Request -->
<g id="node2" class="node"><title>\\Teknoo\\Curl\\Request</title>
<polygon fill="none" stroke="black" points="340.293,-266 276.293,-266 276.293,-230 340.293,-230 340.293,-266"/>
<text text-anchor="middle" x="308.293" y="-245.2" font-family="Courier,monospace" font-size="11.00">Request</text>
</g>
<!-- \\Teknoo\\Curl\\RequestInterface -->
<g id="node6" class="node"><title>\\Teknoo\\Curl\\RequestInterface</title>
<polygon fill="none" stroke="black" points="157,-266 32,-266 32,-230 157,-230 157,-266"/>
<text text-anchor="middle" x="94.5" y="-245.2" font-family="Courier,monospace" font-size="11.00">RequestInterface</text>
</g>
<!-- \\Teknoo\\Curl\\Request&#45;&gt;\\Teknoo\\Curl\\RequestInterface -->
<g id="edge2" class="edge"><title>\\Teknoo\\Curl\\Request&#45;&gt;\\Teknoo\\Curl\\RequestInterface</title>
<path fill="none" stroke="black" stroke-dasharray="1,5" d="M276.042,-248C247.539,-248 204.356,-248 167.37,-248"/>
<polygon fill="none" stroke="black" points="167.119,-244.5 157.119,-248 167.119,-251.5 167.119,-244.5"/>
</g>
<!-- \\Teknoo\\Curl\\RequestGenerator -->
<g id="node3" class="node"><title>\\Teknoo\\Curl\\RequestGenerator</title>
<polygon fill="none" stroke="black" points="370.793,-158 245.793,-158 245.793,-122 370.793,-122 370.793,-158"/>
<text text-anchor="middle" x="308.293" y="-137.2" font-family="Courier,monospace" font-size="11.00">RequestGenerator</text>
</g>
<!-- \\Teknoo\\Curl\\Options -->
<g id="node4" class="node"><title>\\Teknoo\\Curl\\Options</title>
<polygon fill="none" stroke="black" points="340.293,-212 276.293,-212 276.293,-176 340.293,-176 340.293,-212"/>
<text text-anchor="middle" x="308.293" y="-191.2" font-family="Courier,monospace" font-size="11.00">Options</text>
</g>
<!-- \\Teknoo\\Curl\\OptionsInterface -->
<g id="node5" class="node"><title>\\Teknoo\\Curl\\OptionsInterface</title>
<polygon fill="none" stroke="black" points="157,-212 32,-212 32,-176 157,-176 157,-212"/>
<text text-anchor="middle" x="94.5" y="-191.2" font-family="Courier,monospace" font-size="11.00">OptionsInterface</text>
</g>
<!-- \\Teknoo\\Curl\\Options&#45;&gt;\\Teknoo\\Curl\\OptionsInterface -->
<g id="edge3" class="edge"><title>\\Teknoo\\Curl\\Options&#45;&gt;\\Teknoo\\Curl\\OptionsInterface</title>
<path fill="none" stroke="black" stroke-dasharray="1,5" d="M276.042,-194C247.539,-194 204.356,-194 167.37,-194"/>
<polygon fill="none" stroke="black" points="167.119,-190.5 157.119,-194 167.119,-197.5 167.119,-190.5"/>
</g>
</g>
</svg>
